<svg width="243" height="110" viewBox="0 0 243 110" fill="none" xmlns="http://www.w3.org/2000/svg">
<circle cx="56.5" cy="35.5" r="35.5" fill="#E73E3E"/>
<path d="M139 36C139 55.33 123.33 71 104 71C84.67 71 69 55.33 69 36C69 16.67 84.67 0.999998 104 0.999998C123.33 0.999998 139 16.67 139 36Z" fill="#E73E3E"/>
<rect x="31" y="60.4975" width="70" height="70" transform="rotate(-45 31 60.4975)" fill="#E73E3E"/>
<g filter="url(#filter0_d_1_14)">
<path d="M9.552 60.26C8.044 60.26 6.85667 59.8787 5.99 59.116C5.12333 58.336 4.69 57.2873 4.69 55.97C4.69 54.6353 5.12333 53.5867 5.99 52.824C6.85667 52.0613 8.02667 51.68 9.5 51.68H13.92V50.25C13.92 49.366 13.6513 48.69 13.114 48.222C12.594 47.7367 11.8487 47.494 10.878 47.494C10.0287 47.494 9.318 47.676 8.746 48.04C8.174 48.3867 7.84467 48.8633 7.758 49.47H5.418C5.574 48.2393 6.15467 47.26 7.16 46.532C8.16533 45.804 9.422 45.44 10.93 45.44C12.5767 45.44 13.8767 45.8647 14.83 46.714C15.7833 47.5633 16.26 48.716 16.26 50.172V60H13.972V57.27H13.582L13.972 56.88C13.972 57.92 13.5647 58.7433 12.75 59.35C11.9527 59.9567 10.8867 60.26 9.552 60.26ZM10.124 58.414C11.2333 58.414 12.1433 58.1367 12.854 57.582C13.5647 57.0273 13.92 56.3167 13.92 55.45V53.422H9.552C8.772 53.422 8.15667 53.6387 7.706 54.072C7.25533 54.5053 7.03 55.0947 7.03 55.84C7.03 56.6373 7.29867 57.27 7.836 57.738C8.39067 58.1887 9.15333 58.414 10.124 58.414ZM20.3058 60V45.7H22.3598V47.416H22.8278L22.4638 48.04C22.4638 47.2427 22.6718 46.61 23.0878 46.142C23.5212 45.674 24.1018 45.44 24.8298 45.44C25.6272 45.44 26.2425 45.7347 26.6758 46.324C27.1092 46.9133 27.3258 47.7453 27.3258 48.82L26.6238 47.416H27.7158L27.2218 48.04C27.2218 47.2427 27.4385 46.61 27.8718 46.142C28.3225 45.674 28.9118 45.44 29.6398 45.44C30.5412 45.44 31.2345 45.778 31.7198 46.454C32.2225 47.13 32.4738 48.0227 32.4738 49.132V60H30.3158V49.106C30.3158 48.5167 30.1858 48.0573 29.9258 47.728C29.6832 47.3987 29.3192 47.234 28.8338 47.234C28.3658 47.234 27.9932 47.3987 27.7158 47.728C27.4558 48.04 27.3258 48.4907 27.3258 49.08V60H25.4538V49.106C25.4538 48.4993 25.3152 48.04 25.0378 47.728C24.7778 47.3987 24.4052 47.234 23.9198 47.234C23.4345 47.234 23.0705 47.3987 22.8278 47.728C22.5852 48.04 22.4638 48.4907 22.4638 49.08V60H20.3058ZM41.9797 60.208C40.8357 60.208 39.8477 59.9913 39.0157 59.558C38.1837 59.1247 37.5337 58.5007 37.0657 57.686C36.615 56.854 36.3897 55.8747 36.3897 54.748V50.952C36.3897 49.808 36.615 48.8287 37.0657 48.014C37.5337 47.1993 38.1837 46.5753 39.0157 46.142C39.8477 45.7087 40.8357 45.492 41.9797 45.492C43.1237 45.492 44.1117 45.7087 44.9437 46.142C45.7757 46.5753 46.417 47.1993 46.8677 48.014C47.3357 48.8287 47.5697 49.7993 47.5697 50.926V54.748C47.5697 55.8747 47.3357 56.854 46.8677 57.686C46.417 58.5007 45.7757 59.1247 44.9437 59.558C44.1117 59.9913 43.1237 60.208 41.9797 60.208ZM41.9797 58.128C43.0024 58.128 43.7997 57.842 44.3717 57.27C44.9437 56.698 45.2297 55.8573 45.2297 54.748V50.952C45.2297 49.8427 44.9437 49.002 44.3717 48.43C43.7997 47.858 43.0024 47.572 41.9797 47.572C40.9744 47.572 40.177 47.858 39.5877 48.43C39.0157 49.002 38.7297 49.8427 38.7297 50.952V54.748C38.7297 55.8573 39.0157 56.698 39.5877 57.27C40.177 57.842 40.9744 58.128 41.9797 58.128ZM52.6555 60V45.7H54.9435V48.43H55.4895L54.7355 50.12C54.7355 48.5773 55.0649 47.416 55.7235 46.636C56.3995 45.8387 57.3962 45.44 58.7135 45.44C60.2215 45.44 61.4175 45.9167 62.3015 46.87C63.2029 47.806 63.6535 49.08 63.6535 50.692V51.55H61.3135V50.9C61.3135 49.7733 61.0362 48.9153 60.4815 48.326C59.9442 47.7193 59.1729 47.416 58.1675 47.416C57.1795 47.416 56.3995 47.7193 55.8275 48.326C55.2729 48.9327 54.9955 49.7907 54.9955 50.9V60H52.6555ZM73.1594 60.208C72.0154 60.208 71.0274 59.9913 70.1954 59.558C69.3634 59.1247 68.7134 58.5007 68.2454 57.686C67.7947 56.854 67.5694 55.8747 67.5694 54.748V50.952C67.5694 49.808 67.7947 48.8287 68.2454 48.014C68.7134 47.1993 69.3634 46.5753 70.1954 46.142C71.0274 45.7087 72.0154 45.492 73.1594 45.492C74.3034 45.492 75.2914 45.7087 76.1234 46.142C76.9554 46.5753 77.5967 47.1993 78.0474 48.014C78.5154 48.8287 78.7494 49.7993 78.7494 50.926V54.748C78.7494 55.8747 78.5154 56.854 78.0474 57.686C77.5967 58.5007 76.9554 59.1247 76.1234 59.558C75.2914 59.9913 74.3034 60.208 73.1594 60.208ZM73.1594 58.128C74.182 58.128 74.9794 57.842 75.5514 57.27C76.1234 56.698 76.4094 55.8573 76.4094 54.748V50.952C76.4094 49.8427 76.1234 49.002 75.5514 48.43C74.9794 47.858 74.182 47.572 73.1594 47.572C72.154 47.572 71.3567 47.858 70.7674 48.43C70.1954 49.002 69.9094 49.8427 69.9094 50.952V54.748C69.9094 55.8573 70.1954 56.698 70.7674 57.27C71.3567 57.842 72.154 58.128 73.1594 58.128ZM82.6652 60V45.7H84.7192V47.416H85.1872L84.8232 48.04C84.8232 47.2427 85.0312 46.61 85.4472 46.142C85.8806 45.674 86.4612 45.44 87.1892 45.44C87.9866 45.44 88.6019 45.7347 89.0352 46.324C89.4686 46.9133 89.6852 47.7453 89.6852 48.82L88.9832 47.416H90.0752L89.5812 48.04C89.5812 47.2427 89.7979 46.61 90.2312 46.142C90.6819 45.674 91.2712 45.44 91.9992 45.44C92.9006 45.44 93.5939 45.778 94.0792 46.454C94.5819 47.13 94.8332 48.0227 94.8332 49.132V60H92.6752V49.106C92.6752 48.5167 92.5452 48.0573 92.2852 47.728C92.0426 47.3987 91.6786 47.234 91.1932 47.234C90.7252 47.234 90.3526 47.3987 90.0752 47.728C89.8152 48.04 89.6852 48.4907 89.6852 49.08V60H87.8132V49.106C87.8132 48.4993 87.6746 48.04 87.3972 47.728C87.1372 47.3987 86.7646 47.234 86.2792 47.234C85.7939 47.234 85.4299 47.3987 85.1872 47.728C84.9446 48.04 84.8232 48.4907 84.8232 49.08V60H82.6652ZM104.339 60.26C103.212 60.26 102.224 60.0347 101.375 59.584C100.543 59.1333 99.8931 58.5007 99.4251 57.686C98.9744 56.854 98.7491 55.892 98.7491 54.8V50.9C98.7491 49.7907 98.9744 48.8287 99.4251 48.014C99.8931 47.1993 100.543 46.5667 101.375 46.116C102.224 45.6653 103.212 45.44 104.339 45.44C105.466 45.44 106.445 45.6653 107.277 46.116C108.126 46.5667 108.776 47.1993 109.227 48.014C109.695 48.8287 109.929 49.7907 109.929 50.9V53.422H101.037V54.8C101.037 55.9267 101.323 56.7933 101.895 57.4C102.467 57.9893 103.282 58.284 104.339 58.284C105.24 58.284 105.968 58.128 106.523 57.816C107.078 57.4867 107.416 57.0013 107.537 56.36H109.877C109.721 57.556 109.132 58.5093 108.109 59.22C107.104 59.9133 105.847 60.26 104.339 60.26ZM107.641 51.862V50.9C107.641 49.7733 107.355 48.9067 106.783 48.3C106.228 47.6933 105.414 47.39 104.339 47.39C103.282 47.39 102.467 47.6933 101.895 48.3C101.323 48.9067 101.037 49.7733 101.037 50.9V51.654H107.823L107.641 51.862ZM121.489 60C120.258 60 119.296 59.6707 118.603 59.012C117.927 58.3533 117.589 57.426 117.589 56.23V47.832H113.559V45.7H117.589V41.67H119.929V45.7H125.649V47.832H119.929V56.23C119.929 57.322 120.449 57.868 121.489 57.868H125.389V60H121.489ZM130.605 60V45.7H132.893V48.43H133.439L132.685 50.12C132.685 48.5773 133.014 47.416 133.673 46.636C134.349 45.8387 135.345 45.44 136.663 45.44C138.171 45.44 139.367 45.9167 140.251 46.87C141.152 47.806 141.603 49.08 141.603 50.692V51.55H139.263V50.9C139.263 49.7733 138.985 48.9153 138.431 48.326C137.893 47.7193 137.122 47.416 136.117 47.416C135.129 47.416 134.349 47.7193 133.777 48.326C133.222 48.9327 132.945 49.7907 132.945 50.9V60H130.605ZM151.109 60.208C149.965 60.208 148.977 59.9913 148.145 59.558C147.313 59.1247 146.663 58.5007 146.195 57.686C145.744 56.854 145.519 55.8747 145.519 54.748V50.952C145.519 49.808 145.744 48.8287 146.195 48.014C146.663 47.1993 147.313 46.5753 148.145 46.142C148.977 45.7087 149.965 45.492 151.109 45.492C152.253 45.492 153.241 45.7087 154.073 46.142C154.905 46.5753 155.546 47.1993 155.997 48.014C156.465 48.8287 156.699 49.7993 156.699 50.926V54.748C156.699 55.8747 156.465 56.854 155.997 57.686C155.546 58.5007 154.905 59.1247 154.073 59.558C153.241 59.9913 152.253 60.208 151.109 60.208ZM151.109 58.128C152.131 58.128 152.929 57.842 153.501 57.27C154.073 56.698 154.359 55.8573 154.359 54.748V50.952C154.359 49.8427 154.073 49.002 153.501 48.43C152.929 47.858 152.131 47.572 151.109 47.572C150.103 47.572 149.306 47.858 148.717 48.43C148.145 49.002 147.859 49.8427 147.859 50.952V54.748C147.859 55.8573 148.145 56.698 148.717 57.27C149.306 57.842 150.103 58.128 151.109 58.128Z" fill="white"/>
</g>
<g filter="url(#filter1_d_1_14)">
<path d="M45.965 21.5881L45.991 17.6782L60.8147 17.777L60.7886 21.6869L45.965 21.5881ZM45.9094 29.9179L45.9355 26.008L60.7592 26.1068L60.7331 30.0167L45.9094 29.9179Z" fill="white"/>
</g>
<g filter="url(#filter2_d_1_14)">
<path d="M73.336 95L85.288 77.48H87.064L75.112 95H73.336ZM83.68 95.12C82.672 95.12 81.864 94.832 81.256 94.256C80.648 93.68 80.344 92.888 80.344 91.88V90.32C80.344 89.312 80.648 88.52 81.256 87.944C81.864 87.368 82.672 87.08 83.68 87.08C84.688 87.08 85.496 87.368 86.104 87.944C86.712 88.52 87.016 89.312 87.016 90.32V91.88C87.016 92.888 86.712 93.68 86.104 94.256C85.496 94.832 84.688 95.12 83.68 95.12ZM83.68 93.464C84.72 93.464 85.24 92.936 85.24 91.88V90.32C85.24 89.248 84.72 88.712 83.68 88.712C82.64 88.712 82.12 89.248 82.12 90.32V91.88C82.12 92.936 82.64 93.464 83.68 93.464ZM76.72 85.4C75.712 85.4 74.904 85.112 74.296 84.536C73.688 83.96 73.384 83.168 73.384 82.16V80.6C73.384 79.592 73.688 78.8 74.296 78.224C74.904 77.648 75.712 77.36 76.72 77.36C77.728 77.36 78.536 77.648 79.144 78.224C79.752 78.8 80.056 79.592 80.056 80.6V82.16C80.056 83.168 79.752 83.96 79.144 84.536C78.536 85.112 77.728 85.4 76.72 85.4ZM76.72 83.768C77.76 83.768 78.28 83.232 78.28 82.16V80.6C78.28 79.528 77.76 78.992 76.72 78.992C76.208 78.992 75.816 79.128 75.544 79.4C75.288 79.656 75.16 80.056 75.16 80.6V82.16C75.16 82.704 75.288 83.112 75.544 83.384C75.816 83.64 76.208 83.768 76.72 83.768Z" fill="white"/>
</g>
<g filter="url(#filter3_d_1_14)">
<path d="M112.192 31.96V25.72H106.08V23.16H112.192V16.92H115.008V23.16H121.12V25.72H115.008V31.96H112.192Z" fill="white"/>
</g>
<defs>
<filter id="filter0_d_1_14" x="0.690002" y="41.67" width="160.009" height="26.59" filterUnits="userSpaceOnUse" color-interpolation-filters="sRGB">
<feFlood flood-opacity="0" result="BackgroundImageFix"/>
<feColorMatrix in="SourceAlpha" type="matrix" values="0 0 0 0 0 0 0 0 0 0 0 0 0 0 0 0 0 0 127 0" result="hardAlpha"/>
<feOffset dy="4"/>
<feGaussianBlur stdDeviation="2"/>
<feComposite in2="hardAlpha" operator="out"/>
<feColorMatrix type="matrix" values="0 0 0 0 0 0 0 0 0 0 0 0 0 0 0 0 0 0 0.5 0"/>
<feBlend mode="normal" in2="BackgroundImageFix" result="effect1_dropShadow_1_14"/>
<feBlend mode="normal" in="SourceGraphic" in2="effect1_dropShadow_1_14" result="shape"/>
</filter>
<filter id="filter1_d_1_14" x="41.9095" y="17.6782" width="22.9052" height="20.3385" filterUnits="userSpaceOnUse" color-interpolation-filters="sRGB">
<feFlood flood-opacity="0" result="BackgroundImageFix"/>
<feColorMatrix in="SourceAlpha" type="matrix" values="0 0 0 0 0 0 0 0 0 0 0 0 0 0 0 0 0 0 127 0" result="hardAlpha"/>
<feOffset dy="4"/>
<feGaussianBlur stdDeviation="2"/>
<feComposite in2="hardAlpha" operator="out"/>
<feColorMatrix type="matrix" values="0 0 0 0 0 0 0 0 0 0 0 0 0 0 0 0 0 0 0.25 0"/>
<feBlend mode="normal" in2="BackgroundImageFix" result="effect1_dropShadow_1_14"/>
<feBlend mode="normal" in="SourceGraphic" in2="effect1_dropShadow_1_14" result="shape"/>
</filter>
<filter id="filter2_d_1_14" x="69.336" y="77.36" width="21.728" height="25.76" filterUnits="userSpaceOnUse" color-interpolation-filters="sRGB">
<feFlood flood-opacity="0" result="BackgroundImageFix"/>
<feColorMatrix in="SourceAlpha" type="matrix" values="0 0 0 0 0 0 0 0 0 0 0 0 0 0 0 0 0 0 127 0" result="hardAlpha"/>
<feOffset dy="4"/>
<feGaussianBlur stdDeviation="2"/>
<feComposite in2="hardAlpha" operator="out"/>
<feColorMatrix type="matrix" values="0 0 0 0 0 0 0 0 0 0 0 0 0 0 0 0 0 0 0.25 0"/>
<feBlend mode="normal" in2="BackgroundImageFix" result="effect1_dropShadow_1_14"/>
<feBlend mode="normal" in="SourceGraphic" in2="effect1_dropShadow_1_14" result="shape"/>
</filter>
<filter id="filter3_d_1_14" x="102.08" y="16.92" width="23.04" height="23.04" filterUnits="userSpaceOnUse" color-interpolation-filters="sRGB">
<feFlood flood-opacity="0" result="BackgroundImageFix"/>
<feColorMatrix in="SourceAlpha" type="matrix" values="0 0 0 0 0 0 0 0 0 0 0 0 0 0 0 0 0 0 127 0" result="hardAlpha"/>
<feOffset dy="4"/>
<feGaussianBlur stdDeviation="2"/>
<feComposite in2="hardAlpha" operator="out"/>
<feColorMatrix type="matrix" values="0 0 0 0 0 0 0 0 0 0 0 0 0 0 0 0 0 0 0.25 0"/>
<feBlend mode="normal" in2="BackgroundImageFix" result="effect1_dropShadow_1_14"/>
<feBlend mode="normal" in="SourceGraphic" in2="effect1_dropShadow_1_14" result="shape"/>
</filter>
</defs>
</svg>
