<svg width="403" height="105" viewBox="0 0 403 105" fill="none" xmlns="http://www.w3.org/2000/svg">
<rect width="67.9672" height="67.9672" transform="matrix(0.688937 -0.724822 0.688937 0.724822 6.15144 55.7359)" fill="#EE3C3C"/>
<ellipse cx="33.1103" cy="34.835" rx="33.1103" ry="34.835" fill="#EE3C3C"/>
<ellipse cx="72.8427" cy="34.835" rx="33.1103" ry="34.835" fill="#EE3C3C"/>
<path d="M27.2682 40.1858V32.3858H19.6282V29.1858H27.2682V21.3858H30.7882V29.1858H38.4282V32.3858H30.7882V40.1858H27.2682Z" fill="white"/>
<path d="M68.6746 27.5858V24.3858H85.8746V27.5858H68.6746ZM68.6746 37.1858V33.9858H85.8746V37.1858H68.6746Z" fill="white"/>
<path d="M43.1606 80.7925L61.0886 54.5125H63.7526L45.8246 80.7925H43.1606ZM58.6766 80.9725C57.1646 80.9725 55.9526 80.5405 55.0406 79.6765C54.1286 78.8125 53.6726 77.6245 53.6726 76.1125V73.7725C53.6726 72.2605 54.1286 71.0725 55.0406 70.2085C55.9526 69.3445 57.1646 68.9125 58.6766 68.9125C60.1886 68.9125 61.4006 69.3445 62.3126 70.2085C63.2246 71.0725 63.6806 72.2605 63.6806 73.7725V76.1125C63.6806 77.6245 63.2246 78.8125 62.3126 79.6765C61.4006 80.5405 60.1886 80.9725 58.6766 80.9725ZM58.6766 78.4885C60.2366 78.4885 61.0166 77.6965 61.0166 76.1125V73.7725C61.0166 72.1645 60.2366 71.3605 58.6766 71.3605C57.1166 71.3605 56.3366 72.1645 56.3366 73.7725V76.1125C56.3366 77.6965 57.1166 78.4885 58.6766 78.4885ZM48.2366 66.3925C46.7246 66.3925 45.5126 65.9605 44.6006 65.0965C43.6886 64.2325 43.2326 63.0445 43.2326 61.5325V59.1925C43.2326 57.6805 43.6886 56.4925 44.6006 55.6285C45.5126 54.7645 46.7246 54.3325 48.2366 54.3325C49.7486 54.3325 50.9606 54.7645 51.8726 55.6285C52.7846 56.4925 53.2406 57.6805 53.2406 59.1925V61.5325C53.2406 63.0445 52.7846 64.2325 51.8726 65.0965C50.9606 65.9605 49.7486 66.3925 48.2366 66.3925ZM48.2366 63.9445C49.7966 63.9445 50.5766 63.1405 50.5766 61.5325V59.1925C50.5766 57.5845 49.7966 56.7805 48.2366 56.7805C47.4686 56.7805 46.8806 56.9845 46.4726 57.3925C46.0886 57.7765 45.8966 58.3765 45.8966 59.1925V61.5325C45.8966 62.3485 46.0886 62.9605 46.4726 63.3685C46.8806 63.7525 47.4686 63.9445 48.2366 63.9445Z" fill="white"/>
<path d="M136.265 71.63C135.565 71.63 135.121 71.5367 134.935 71.35C134.748 71.21 134.608 70.79 134.515 70.09C134.095 66.6833 133.838 64.56 133.745 63.72L133.395 60.92C132.368 60.6867 131.201 60.57 129.895 60.57L127.375 60.43C126.255 60.29 125.438 60.22 124.925 60.22C124.645 60.22 124.481 60.3367 124.435 60.57C124.435 60.71 124.411 60.78 124.365 60.78L124.225 62.18C124.178 63.02 123.921 64.7 123.455 67.22C123.221 68.48 122.941 69.46 122.615 70.16C122.241 70.9533 121.891 71.35 121.565 71.35C121.285 71.35 120.981 71.2333 120.655 71C120.328 70.72 120.165 70.44 120.165 70.16L120.235 69.95L120.305 69.74C121.145 66.4267 121.845 63.1367 122.405 59.87L123.245 55.53L124.085 50.21C124.085 50.21 124.341 48.67 124.855 45.59C125.088 44.33 125.508 42.3 126.115 39.5C126.768 36.3267 127.165 34.1567 127.305 32.99C127.351 32.85 127.445 31.9867 127.585 30.4C127.771 28.6267 127.935 27.32 128.075 26.48C128.215 25.2667 128.355 24.5667 128.495 24.38H128.985C129.125 24.4267 129.288 24.45 129.475 24.45C130.035 24.45 130.455 24.31 130.735 24.03C131.061 24.03 131.341 24.1467 131.575 24.38C131.855 24.5667 131.995 24.8 131.995 25.08C131.995 27.32 132.158 29.8867 132.485 32.78C132.671 34.2733 132.811 35.51 132.905 36.49C133.418 42.51 134.725 53.8033 136.825 70.37V70.58C136.825 71.0467 136.638 71.3967 136.265 71.63ZM133.045 59.03C132.578 52.31 131.691 42.3933 130.385 29.28L126.605 47.97C125.531 53.3367 124.995 56.72 124.995 58.12C124.995 58.3533 125.881 58.5633 127.655 58.75C129.428 58.9367 130.991 59.03 132.345 59.03H133.045ZM172.068 74.64C171.135 74.64 170.668 73.1467 170.668 70.16V65.54C170.668 58.82 170.528 53.57 170.248 49.79L170.038 47.2C169.851 46.0333 169.758 45.0067 169.758 44.12C169.758 42.5333 169.805 41.0867 169.898 39.78L170.038 35.44C170.038 33.9933 169.945 32.8967 169.758 32.15C168.825 32.8033 166.001 42.6267 161.288 61.62L161.218 62.67C161.078 63.8367 160.891 64.77 160.658 65.47C160.518 65.9833 160.308 66.38 160.028 66.66C159.795 66.94 159.515 67.08 159.188 67.08C158.441 67.08 157.905 66.8933 157.578 66.52C157.251 66.1467 157.088 65.5633 157.088 64.77C157.088 63.51 156.481 60.2433 155.268 54.97C154.101 49.6967 152.818 44.6333 151.418 39.78C150.065 34.9267 149.131 32.2433 148.618 31.73C148.571 33.3633 148.385 37.2133 148.058 43.28C147.405 54.0133 147.078 62.46 147.078 68.62L147.148 71.42C146.961 72.0267 146.471 72.33 145.678 72.33C145.538 72.33 145.305 72.19 144.978 71.91C144.651 71.6767 144.488 71.49 144.488 71.35C144.488 67.15 144.861 59.7767 145.608 49.23C146.308 39.43 146.658 32.08 146.658 27.18C146.658 26.9467 146.611 26.7133 146.518 26.48C146.378 26.2 146.308 25.99 146.308 25.85C146.308 25.15 146.915 24.8 148.128 24.8C148.921 24.8 149.388 25.15 149.528 25.85C149.715 26.7833 149.808 27.4833 149.808 27.95L149.878 28.79C150.111 30.0033 150.788 31.87 151.908 34.39C152.795 36.3967 153.471 38.1467 153.938 39.64C154.218 40.76 154.475 41.67 154.708 42.37C155.455 45.0767 155.945 47.0833 156.178 48.39L157.088 50.21C157.228 50.91 157.508 52.0533 157.928 53.64C158.348 55.4133 158.651 56.86 158.838 57.98C159.025 59.1 159.118 60.1733 159.118 61.2C159.631 60.4067 161.078 55.6467 163.458 46.92C165.885 38.1467 167.308 32.5467 167.728 30.12C167.775 30.0267 167.798 29.91 167.798 29.77C167.845 29.5833 167.891 29.35 167.938 29.07C168.031 28.4633 168.241 27.5533 168.568 26.34C168.941 25.4067 169.501 24.94 170.248 24.94C170.575 24.94 170.948 25.08 171.368 25.36C171.788 25.64 171.998 25.92 171.998 26.2C171.998 45.66 172.301 55.95 172.908 57.07V60.71C172.861 61.7833 172.838 63.02 172.838 64.42C172.838 67.4067 173.001 69.6467 173.328 71.14C173.375 71.1867 173.398 71.2567 173.398 71.35C173.445 71.4433 173.491 71.56 173.538 71.7C173.585 71.8867 173.608 72.0967 173.608 72.33C173.608 72.8433 173.445 73.3567 173.118 73.87C172.838 74.3833 172.488 74.64 172.068 74.64ZM169.758 31.73H169.688L169.548 31.8L169.758 31.87V31.73ZM191.415 72.33C185.955 72.33 183.225 63.7433 183.225 46.57V44.12C183.225 31.1 184.905 24.59 188.265 24.59C188.498 24.59 188.825 24.66 189.245 24.8C190.738 25.3133 192.208 25.64 193.655 25.78C194.542 25.9667 195.428 26.8767 196.315 28.51C197.295 30.19 198.018 32.4067 198.485 35.16C198.998 37.9133 199.255 40.7367 199.255 43.63L199.115 43.98C199.115 45.52 199.138 46.8967 199.185 48.11L199.255 52.31C199.255 54.69 199.162 56.8367 198.975 58.75C198.695 61.6433 198.228 64.14 197.575 66.24C197.155 67.5 196.665 68.55 196.105 69.39C195.592 70.23 194.938 70.93 194.145 71.49C193.398 72.05 192.488 72.33 191.415 72.33ZM191.135 70.3C192.955 70.3 194.308 69.0167 195.195 66.45C196.082 63.8367 196.618 61.1767 196.805 58.47C196.992 55.67 197.085 53.43 197.085 51.75C197.085 49.8833 196.945 47.13 196.665 43.49C196.432 39.43 196.315 36.6767 196.315 35.23L196.035 34.67L196.175 34.32C196.175 32.2667 195.592 30.4933 194.425 29C193.305 27.5067 191.928 26.76 190.295 26.76C188.148 26.76 186.865 27.7867 186.445 29.84C186.352 30.54 186.258 31.5433 186.165 32.85C186.165 36.3033 186.025 38.66 185.745 39.92C185.745 40.62 185.675 41.7167 185.535 43.21L185.395 46.5C185.395 47.5267 185.418 48.4367 185.465 49.23L185.535 52.03C185.535 54.2233 185.722 56.7433 186.095 59.59C186.375 61.69 186.702 63.4633 187.075 64.91C187.448 66.3567 187.985 67.5933 188.685 68.62C189.385 69.74 190.202 70.3 191.135 70.3ZM219.044 71.84C218.484 71.2333 217.877 69.6233 217.224 67.01C216.571 64.3967 215.964 61.4567 215.404 58.19C215.031 55.53 214.494 52.8933 213.794 50.28C213.234 47.9467 212.697 46.78 212.184 46.78H211.974C210.947 46.78 210.434 47.1067 210.434 47.76C210.434 51.12 210.621 56.23 210.994 63.09C211.181 67.29 211.391 69.74 211.624 70.44L211.064 71.63H210.084L209.524 71.07C208.777 49.51 208.404 34.81 208.404 26.97C208.404 26.4567 208.427 26.0367 208.474 25.71C208.567 25.3833 208.731 25.08 208.964 24.8C209.151 24.4733 209.477 24.31 209.944 24.31C212.324 24.31 214.237 24.8933 215.684 26.06C217.131 27.2267 217.854 28.9067 217.854 31.1V36.21C217.854 37.0967 217.551 38.2867 216.944 39.78C216.384 41.2733 215.754 42.65 215.054 43.91L214.144 45.66C214.657 48.04 215.661 52.3333 217.154 58.54C218.694 64.7 219.534 67.9667 219.674 68.34C219.721 68.3867 219.767 68.5033 219.814 68.69C219.907 68.8767 220.071 69.1567 220.304 69.53C220.631 70.1833 220.794 70.7433 220.794 71.21C220.794 71.8633 220.537 72.19 220.024 72.19L219.044 71.84ZM210.784 45.03C211.671 45.03 212.464 44.5867 213.164 43.7C213.864 42.8133 214.424 41.67 214.844 40.27C215.591 37.4233 215.964 35.16 215.964 33.48C215.964 32.4067 215.894 31.52 215.754 30.82C215.661 30.12 215.474 29.3733 215.194 28.58C214.634 26.9467 213.304 26.13 211.204 26.13C210.971 26.13 210.784 26.34 210.644 26.76C210.504 27.1333 210.434 27.53 210.434 27.95C210.434 31.0767 210.481 33.9 210.574 36.42C210.621 38.94 210.644 41.7633 210.644 44.89L210.784 45.03ZM235.917 72.33C230.457 72.33 227.727 63.7433 227.727 46.57V44.12C227.727 31.1 229.407 24.59 232.767 24.59C233 24.59 233.327 24.66 233.747 24.8C235.24 25.3133 236.71 25.64 238.157 25.78C239.043 25.9667 239.93 26.8767 240.817 28.51C241.797 30.19 242.52 32.4067 242.987 35.16C243.5 37.9133 243.757 40.7367 243.757 43.63L243.617 43.98C243.617 45.52 243.64 46.8967 243.687 48.11L243.757 52.31C243.757 54.69 243.663 56.8367 243.477 58.75C243.197 61.6433 242.73 64.14 242.077 66.24C241.657 67.5 241.167 68.55 240.607 69.39C240.093 70.23 239.44 70.93 238.647 71.49C237.9 72.05 236.99 72.33 235.917 72.33ZM235.637 70.3C237.457 70.3 238.81 69.0167 239.697 66.45C240.583 63.8367 241.12 61.1767 241.307 58.47C241.493 55.67 241.587 53.43 241.587 51.75C241.587 49.8833 241.447 47.13 241.167 43.49C240.933 39.43 240.817 36.6767 240.817 35.23L240.537 34.67L240.677 34.32C240.677 32.2667 240.093 30.4933 238.927 29C237.807 27.5067 236.43 26.76 234.797 26.76C232.65 26.76 231.367 27.7867 230.947 29.84C230.853 30.54 230.76 31.5433 230.667 32.85C230.667 36.3033 230.527 38.66 230.247 39.92C230.247 40.62 230.177 41.7167 230.037 43.21L229.897 46.5C229.897 47.5267 229.92 48.4367 229.967 49.23L230.037 52.03C230.037 54.2233 230.223 56.7433 230.597 59.59C230.877 61.69 231.203 63.4633 231.577 64.91C231.95 66.3567 232.487 67.5933 233.187 68.62C233.887 69.74 234.703 70.3 235.637 70.3ZM280.486 74.64C279.553 74.64 279.086 73.1467 279.086 70.16V65.54C279.086 58.82 278.946 53.57 278.666 49.79L278.456 47.2C278.269 46.0333 278.176 45.0067 278.176 44.12C278.176 42.5333 278.223 41.0867 278.316 39.78L278.456 35.44C278.456 33.9933 278.363 32.8967 278.176 32.15C277.243 32.8033 274.419 42.6267 269.706 61.62L269.636 62.67C269.496 63.8367 269.309 64.77 269.076 65.47C268.936 65.9833 268.726 66.38 268.446 66.66C268.213 66.94 267.933 67.08 267.606 67.08C266.859 67.08 266.323 66.8933 265.996 66.52C265.669 66.1467 265.506 65.5633 265.506 64.77C265.506 63.51 264.899 60.2433 263.686 54.97C262.519 49.6967 261.236 44.6333 259.836 39.78C258.483 34.9267 257.549 32.2433 257.036 31.73C256.989 33.3633 256.803 37.2133 256.476 43.28C255.823 54.0133 255.496 62.46 255.496 68.62L255.566 71.42C255.379 72.0267 254.889 72.33 254.096 72.33C253.956 72.33 253.723 72.19 253.396 71.91C253.069 71.6767 252.906 71.49 252.906 71.35C252.906 67.15 253.279 59.7767 254.026 49.23C254.726 39.43 255.076 32.08 255.076 27.18C255.076 26.9467 255.029 26.7133 254.936 26.48C254.796 26.2 254.726 25.99 254.726 25.85C254.726 25.15 255.333 24.8 256.546 24.8C257.339 24.8 257.806 25.15 257.946 25.85C258.133 26.7833 258.226 27.4833 258.226 27.95L258.296 28.79C258.529 30.0033 259.206 31.87 260.326 34.39C261.213 36.3967 261.889 38.1467 262.356 39.64C262.636 40.76 262.893 41.67 263.126 42.37C263.873 45.0767 264.363 47.0833 264.596 48.39L265.506 50.21C265.646 50.91 265.926 52.0533 266.346 53.64C266.766 55.4133 267.069 56.86 267.256 57.98C267.443 59.1 267.536 60.1733 267.536 61.2C268.049 60.4067 269.496 55.6467 271.876 46.92C274.303 38.1467 275.726 32.5467 276.146 30.12C276.193 30.0267 276.216 29.91 276.216 29.77C276.263 29.5833 276.309 29.35 276.356 29.07C276.449 28.4633 276.659 27.5533 276.986 26.34C277.359 25.4067 277.919 24.94 278.666 24.94C278.993 24.94 279.366 25.08 279.786 25.36C280.206 25.64 280.416 25.92 280.416 26.2C280.416 45.66 280.719 55.95 281.326 57.07V60.71C281.279 61.7833 281.256 63.02 281.256 64.42C281.256 67.4067 281.419 69.6467 281.746 71.14C281.793 71.1867 281.816 71.2567 281.816 71.35C281.863 71.4433 281.909 71.56 281.956 71.7C282.003 71.8867 282.026 72.0967 282.026 72.33C282.026 72.8433 281.863 73.3567 281.536 73.87C281.256 74.3833 280.906 74.64 280.486 74.64ZM278.176 31.73H278.106L277.966 31.8L278.176 31.87V31.73ZM293.883 71.91C293.043 71.91 292.576 71.42 292.483 70.44V69.53C292.529 69.2967 292.553 69.0167 292.553 68.69L292.273 68.41C292.646 67.43 292.833 66.4733 292.833 65.54C292.833 64.4667 292.763 62.9267 292.623 60.92L292.483 56.3C292.483 53.9667 292.553 50.4667 292.693 45.8C292.879 41.6467 292.973 38.1233 292.973 35.23L292.833 31.03C292.739 29.77 292.693 28.37 292.693 26.83C292.693 26.13 292.856 25.64 293.183 25.36C293.509 25.0333 294.023 24.87 294.723 24.87C295.189 24.87 295.563 25.01 295.843 25.29C295.936 25.3367 296.613 25.43 297.873 25.57C299.039 25.71 300.043 25.92 300.883 26.2C301.769 26.48 302.213 26.83 302.213 27.25C302.213 27.7167 301.769 28.1833 300.883 28.65C298.223 27.7633 296.333 27.32 295.213 27.32L294.863 27.74C294.909 28.16 294.933 29.1633 294.933 30.75C294.933 32.7567 294.886 34.5533 294.793 36.14C294.746 37.7733 294.723 39.5933 294.723 41.6C294.723 42.9067 295.049 43.56 295.703 43.56L296.823 43.49C297.196 43.4433 297.593 43.42 298.013 43.42C299.833 43.42 300.743 43.84 300.743 44.68C300.743 45.1933 300.626 45.6367 300.393 46.01C300.159 46.3367 299.809 46.5 299.343 46.5C298.643 46.5 298.106 46.3133 297.733 45.94L295.493 45.59H295.143L294.793 45.94V46.15C294.886 46.9433 294.933 48.7867 294.933 51.68C294.933 53.5 294.909 55.1567 294.863 56.65L294.793 61.62C294.793 63.44 294.863 65.3067 295.003 67.22C295.049 68.2933 295.283 69.0167 295.703 69.39C296.123 69.7167 296.893 69.88 298.013 69.88L299.273 69.81C299.693 69.7633 300.159 69.74 300.673 69.74C302.026 69.74 302.703 70.0433 302.703 70.65C302.703 71.49 301.676 71.91 299.623 71.91H293.883ZM315.083 70.02L315.013 67.43C314.966 66.6833 314.943 65.8433 314.943 64.91C314.943 64.4433 314.966 64.0467 315.013 63.72L315.083 62.46C315.083 61.9933 314.99 61.4333 314.803 60.78C314.803 57.6533 314.57 51.8433 314.103 43.35C313.636 35.1367 313.38 29.56 313.333 26.62C310.44 26.62 308.503 26.55 307.523 26.41C306.59 26.1767 306.123 25.8033 306.123 25.29C306.356 24.7767 306.8 24.52 307.453 24.52C308.853 24.52 310.883 24.6133 313.543 24.8C315.97 25.0333 318 25.15 319.633 25.15H321.103L322.573 25.08C323.413 25.08 323.833 25.3833 323.833 25.99C323.833 26.27 323.67 26.5033 323.343 26.69C323.063 26.83 322.713 26.9 322.293 26.9C321.36 26.9 320.38 26.8533 319.353 26.76L316.343 26.62C316.156 26.62 316.063 26.69 316.063 26.83C316.016 26.97 315.993 27.4133 315.993 28.16C315.993 32.6867 316.273 39.5467 316.833 48.74C317.346 58.26 317.603 65.0967 317.603 69.25C317.603 69.5767 317.393 69.88 316.973 70.16C316.6 70.44 316.226 70.58 315.853 70.58L315.083 70.02ZM341.954 71.84C341.394 71.2333 340.788 69.6233 340.134 67.01C339.481 64.3967 338.874 61.4567 338.314 58.19C337.941 55.53 337.404 52.8933 336.704 50.28C336.144 47.9467 335.608 46.78 335.094 46.78H334.884C333.858 46.78 333.344 47.1067 333.344 47.76C333.344 51.12 333.531 56.23 333.904 63.09C334.091 67.29 334.301 69.74 334.534 70.44L333.974 71.63H332.994L332.434 71.07C331.688 49.51 331.314 34.81 331.314 26.97C331.314 26.4567 331.338 26.0367 331.384 25.71C331.478 25.3833 331.641 25.08 331.874 24.8C332.061 24.4733 332.388 24.31 332.854 24.31C335.234 24.31 337.148 24.8933 338.594 26.06C340.041 27.2267 340.764 28.9067 340.764 31.1V36.21C340.764 37.0967 340.461 38.2867 339.854 39.78C339.294 41.2733 338.664 42.65 337.964 43.91L337.054 45.66C337.568 48.04 338.571 52.3333 340.064 58.54C341.604 64.7 342.444 67.9667 342.584 68.34C342.631 68.3867 342.678 68.5033 342.724 68.69C342.818 68.8767 342.981 69.1567 343.214 69.53C343.541 70.1833 343.704 70.7433 343.704 71.21C343.704 71.8633 343.448 72.19 342.934 72.19L341.954 71.84ZM333.694 45.03C334.581 45.03 335.374 44.5867 336.074 43.7C336.774 42.8133 337.334 41.67 337.754 40.27C338.501 37.4233 338.874 35.16 338.874 33.48C338.874 32.4067 338.804 31.52 338.664 30.82C338.571 30.12 338.384 29.3733 338.104 28.58C337.544 26.9467 336.214 26.13 334.114 26.13C333.881 26.13 333.694 26.34 333.554 26.76C333.414 27.1333 333.344 27.53 333.344 27.95C333.344 31.0767 333.391 33.9 333.484 36.42C333.531 38.94 333.554 41.7633 333.554 44.89L333.694 45.03ZM358.827 72.33C353.367 72.33 350.637 63.7433 350.637 46.57V44.12C350.637 31.1 352.317 24.59 355.677 24.59C355.91 24.59 356.237 24.66 356.657 24.8C358.15 25.3133 359.62 25.64 361.067 25.78C361.954 25.9667 362.84 26.8767 363.727 28.51C364.707 30.19 365.43 32.4067 365.897 35.16C366.41 37.9133 366.667 40.7367 366.667 43.63L366.527 43.98C366.527 45.52 366.55 46.8967 366.597 48.11L366.667 52.31C366.667 54.69 366.574 56.8367 366.387 58.75C366.107 61.6433 365.64 64.14 364.987 66.24C364.567 67.5 364.077 68.55 363.517 69.39C363.004 70.23 362.35 70.93 361.557 71.49C360.81 72.05 359.9 72.33 358.827 72.33ZM358.547 70.3C360.367 70.3 361.72 69.0167 362.607 66.45C363.494 63.8367 364.03 61.1767 364.217 58.47C364.404 55.67 364.497 53.43 364.497 51.75C364.497 49.8833 364.357 47.13 364.077 43.49C363.844 39.43 363.727 36.6767 363.727 35.23L363.447 34.67L363.587 34.32C363.587 32.2667 363.004 30.4933 361.837 29C360.717 27.5067 359.34 26.76 357.707 26.76C355.56 26.76 354.277 27.7867 353.857 29.84C353.764 30.54 353.67 31.5433 353.577 32.85C353.577 36.3033 353.437 38.66 353.157 39.92C353.157 40.62 353.087 41.7167 352.947 43.21L352.807 46.5C352.807 47.5267 352.83 48.4367 352.877 49.23L352.947 52.03C352.947 54.2233 353.134 56.7433 353.507 59.59C353.787 61.69 354.114 63.4633 354.487 64.91C354.86 66.3567 355.397 67.5933 356.097 68.62C356.797 69.74 357.614 70.3 358.547 70.3Z" fill="#3C3C3C"/>
</svg>
